<svg width="1474" height="705" viewBox="0 0 1474 705" fill="none" xmlns="http://www.w3.org/2000/svg">
<g clip-path="url(#clip0_1102_381)">
<rect width="1474" height="705" fill="white"/>
<rect x="135" y="145" width="286" height="470" stroke="#274867" stroke-width="4"/>
<rect x="560" y="145" width="891" height="470" stroke="#274867" stroke-width="4"/>
<rect x="349" y="254" width="212" height="29" fill="#007BFF"/>
<path d="M639 269L539 304L539 234L639 269Z" fill="#007BFF"/>
<rect width="99.4207" height="13.6" transform="matrix(-1 0 0 1 961 373.379)" fill="#007BFF"/>
<path d="M825 380.414L871.897 396.828L871.897 364L825 380.414Z" fill="#007BFF"/>
<rect x="349" y="476" width="212" height="29" fill="#007BFF"/>
<path d="M639 491L539 526L539 456L639 491Z" fill="#007BFF"/>
<circle cx="781" cy="270" r="42" stroke="#274867" stroke-width="4"/>
<circle cx="781" cy="490" r="42" stroke="#274867" stroke-width="4"/>
<path d="M763 330.923L775.723 317.926C778.686 315.233 783.175 315.366 785.883 318.312L799.5 330.923" stroke="#007BFF" stroke-width="4" stroke-miterlimit="10" stroke-linecap="round"/>
<line x1="781" y1="316" x2="781" y2="446" stroke="#007BFF" stroke-width="4" stroke-dasharray="9 9"/>
<rect x="238" y="232" width="80" height="72" stroke="#274867" stroke-width="4"/>
<rect x="238" y="455" width="80" height="72" stroke="#274867" stroke-width="4"/>
<path d="M434.624 202.354L444.953 218.618C447.109 221.992 451.477 223.038 454.861 220.902L471.302 212.291M449.928 219.674L491 67" stroke="#007BFF" stroke-width="4" stroke-miterlimit="10" stroke-linecap="round"/>
<path d="M199.562 225.205L218.706 223.03C222.683 222.568 225.535 219.097 225.094 215.119L224.541 196.568M221.832 219.018L102.502 115.304" stroke="#007BFF" stroke-width="4" stroke-miterlimit="10" stroke-linecap="round"/>
<path d="M199.562 534.81L218.706 536.984C222.683 537.447 225.535 540.918 225.094 544.895L224.541 563.446M221.832 540.997L102.502 644.71" stroke="#007BFF" stroke-width="4" stroke-miterlimit="10" stroke-linecap="round"/>
<path d="M525 459.386L510.777 472.383C507.814 475.076 503.325 474.944 500.617 471.997L487 459.386M505.699 472.101L505.699 67" stroke="#007BFF" stroke-width="4" stroke-miterlimit="10" stroke-linecap="round"/>
<path d="M43.85 101V86.6C43.85 81.155 40.79 77.735 35.21 77.735C32.15 77.735 29.63 78.995 28.37 80.75H27.38V78.32H23.69V101H27.515V88.715C27.515 84.71 30.215 81.155 34.265 81.155C38.09 81.155 40.025 83.225 40.025 87.41V101H43.85ZM50.4882 78.32V92.72C50.4882 98.165 53.5482 101.585 59.1282 101.585C62.1882 101.585 64.7082 100.325 65.9682 98.57H66.9582V101H70.6482V78.32H66.8232V90.605C66.8232 94.7 64.0782 98.165 60.0732 98.165C56.2482 98.165 54.3132 96.095 54.3132 91.91V78.32H50.4882ZM101.811 77.735C98.9764 77.735 96.8164 78.725 95.4214 80.75H94.4314C93.2164 78.725 91.1914 77.735 88.4464 77.735C85.5664 77.735 83.8114 78.77 82.6864 80.525H81.6964V78.32H78.0064V101H81.8314V88.445C81.8314 84.35 83.6314 81.155 87.4114 81.155C90.2464 81.155 91.7314 83.09 91.7314 86.825V101H95.5564V87.725C95.5564 83.9 97.5364 81.155 101.091 81.155C104.016 81.155 105.456 83 105.456 86.735V101H109.281V86.33C109.281 81.11 107.031 77.735 101.811 77.735Z" fill="#274867"/>
<path d="M230.095 100.785C227.395 100.2 224.65 99.21 224.65 96.105C224.65 92.73 227.89 90.975 231.76 90.975C236.44 90.975 238.645 92.73 239.41 95.97H243.505C242.785 90.795 238.51 87.285 231.85 87.285C224.605 87.285 220.555 91.2 220.555 96.195C220.555 100.875 223.66 103.395 228.34 104.34C229.915 104.7 233.065 105.285 234.685 105.645C237.835 106.365 240.13 107.67 240.13 111.135C240.13 114.825 236.71 116.895 232.255 116.895C227.845 116.895 223.975 115.41 223.255 111.045H219.16C219.655 116.625 224.56 120.585 232.075 120.585C240.22 120.585 244.225 116.085 244.225 111.045C244.225 105.555 240.985 103.08 236.17 102C234.505 101.64 231.49 101.01 230.095 100.785ZM255.838 97.32V90.48H252.013V97.32H248.098V100.65H252.013V113.655C252.013 118.47 254.893 120 259.798 120H261.553V116.58H259.888C256.828 116.58 255.838 115.41 255.838 113.115V100.65H261.553V97.32H255.838ZM282.288 120H285.888V104.565C285.888 99.48 282.243 96.735 276.528 96.735C271.443 96.735 267.843 99.165 267.528 103.35H271.353C271.533 101.37 273.243 100.065 276.618 100.065C280.578 100.065 282.153 102.045 282.153 104.79V105.69H274.773C268.473 105.69 266.088 109.56 266.088 113.205C266.088 117.075 269.013 120.585 274.233 120.585C277.473 120.585 279.903 119.37 281.298 117.615H282.288V120ZM275.178 117.255C271.803 117.255 269.913 115.635 269.913 113.07C269.913 110.37 271.623 108.75 275.358 108.75H282.153V110.82C282.153 114.42 278.958 117.255 275.178 117.255ZM308.237 113.16C307.652 115.68 305.762 117.255 302.522 117.255C297.437 117.255 295.322 113.115 295.322 108.57C295.322 104.07 297.392 100.065 302.522 100.065C305.627 100.065 307.382 101.595 308.102 103.89H311.927C311.162 99.705 307.922 96.735 302.522 96.735C295.457 96.735 291.497 101.82 291.497 108.66C291.497 115.365 295.457 120.585 302.522 120.585C307.787 120.585 311.207 117.615 312.062 113.16H308.237ZM338.375 120L330.32 104.295L336.845 97.32H332.3L321.59 108.705V87.285H317.765V120H321.59V113.43L326.81 107.67H327.8L334.28 120H338.375Z" fill="#274867"/>
<path d="M975.1 87.87V101.55H957.145V87.87H953.095V120H957.145V105.33H975.1V120H979.15V87.87H975.1ZM1006.59 107.31C1006.45 101.73 1003.21 96.735 996.463 96.735C989.578 96.735 985.528 101.46 985.528 108.435C985.528 115.41 989.488 120.585 996.553 120.585C1002.18 120.585 1005.46 117.615 1006.18 113.745H1002.31C1001.64 115.905 999.748 117.255 996.553 117.255C991.873 117.255 989.443 114.015 989.308 108.615H1006.59V107.31ZM996.373 100.065C1000.2 100.065 1002.4 102.54 1002.63 105.42H989.533C990.028 102.54 992.278 100.065 996.373 100.065ZM1026.99 120H1030.59V104.565C1030.59 99.48 1026.94 96.735 1021.23 96.735C1016.14 96.735 1012.54 99.165 1012.23 103.35H1016.05C1016.23 101.37 1017.94 100.065 1021.32 100.065C1025.28 100.065 1026.85 102.045 1026.85 104.79V105.69H1019.47C1013.17 105.69 1010.79 109.56 1010.79 113.205C1010.79 117.075 1013.71 120.585 1018.93 120.585C1022.17 120.585 1024.6 119.37 1026 117.615H1026.99V120ZM1019.88 117.255C1016.5 117.255 1014.61 115.635 1014.61 113.07C1014.61 110.37 1016.32 108.75 1020.06 108.75H1026.85V110.82C1026.85 114.42 1023.66 117.255 1019.88 117.255ZM1048.48 100.065C1053.03 100.065 1055.46 103.62 1055.46 108.66C1055.46 113.7 1053.03 117.255 1048.48 117.255C1043.44 117.255 1041.37 113.115 1041.37 108.66C1041.37 104.205 1043.44 100.065 1048.48 100.065ZM1037.59 97.32V129H1041.42V117.57H1042.41C1043.62 119.19 1045.74 120.585 1049.34 120.585C1055.59 120.585 1059.28 115.5 1059.28 108.66C1059.28 101.955 1055.59 96.735 1049.34 96.735C1045.74 96.735 1043.53 98.175 1042.27 99.75H1041.28V97.32H1037.59Z" fill="#274867"/>
<path d="M992.095 374.785C989.395 374.2 986.65 373.21 986.65 370.105C986.65 366.73 989.89 364.975 993.76 364.975C998.44 364.975 1000.65 366.73 1001.41 369.97H1005.51C1004.79 364.795 1000.51 361.285 993.85 361.285C986.605 361.285 982.555 365.2 982.555 370.195C982.555 374.875 985.66 377.395 990.34 378.34C991.915 378.7 995.065 379.285 996.685 379.645C999.835 380.365 1002.13 381.67 1002.13 385.135C1002.13 388.825 998.71 390.895 994.255 390.895C989.845 390.895 985.975 389.41 985.255 385.045H981.16C981.655 390.625 986.56 394.585 994.075 394.585C1002.22 394.585 1006.23 390.085 1006.23 385.045C1006.23 379.555 1002.99 377.08 998.17 376C996.505 375.64 993.49 375.01 992.095 374.785ZM1022.34 370.735C1015.23 370.735 1011.18 375.955 1011.18 382.66C1011.18 389.365 1015.23 394.585 1022.34 394.585C1029.4 394.585 1033.5 389.365 1033.5 382.66C1033.5 375.955 1029.4 370.735 1022.34 370.735ZM1022.34 391.255C1017.3 391.255 1015 387.115 1015 382.66C1015 378.205 1017.3 374.065 1022.34 374.065C1027.33 374.065 1029.67 378.205 1029.67 382.66C1029.67 387.115 1027.33 391.255 1022.34 391.255ZM1050.9 374.65V371.32H1044.73V368.845C1044.73 366.505 1045.72 364.615 1048.74 364.615H1050.9V361.285H1048.69C1043.79 361.285 1040.91 363.535 1040.91 368.71V371.32H1036.99V374.65H1040.91V394H1044.73V374.65H1050.9ZM1061.3 371.32V364.48H1057.47V371.32H1053.56V374.65H1057.47V387.655C1057.47 392.47 1060.35 394 1065.26 394H1067.01V390.58H1065.35C1062.29 390.58 1061.3 389.41 1061.3 387.115V374.65H1067.01V371.32H1061.3ZM1086.23 361.87V394H1090.28V380.545H1099.64C1100.5 380.545 1101.4 380.5 1102.25 380.41L1107.07 394H1111.25L1106.12 379.465C1109.36 378.025 1111.03 375.19 1111.03 371.23C1111.03 365.335 1107.25 361.87 1100.45 361.87H1086.23ZM1090.28 376.945V365.47H1099.87C1105.04 365.47 1106.93 367.63 1106.93 371.23C1106.93 374.785 1105.04 376.945 1099.87 376.945H1090.28ZM1137.4 381.31C1137.26 375.73 1134.02 370.735 1127.27 370.735C1120.39 370.735 1116.34 375.46 1116.34 382.435C1116.34 389.41 1120.3 394.585 1127.36 394.585C1132.99 394.585 1136.27 391.615 1136.99 387.745H1133.12C1132.45 389.905 1130.56 391.255 1127.36 391.255C1122.68 391.255 1120.25 388.015 1120.12 382.615H1137.4V381.31ZM1127.18 374.065C1131.01 374.065 1133.21 376.54 1133.44 379.42H1120.34C1120.84 376.54 1123.09 374.065 1127.18 374.065ZM1154.78 374.65V371.32H1148.62V368.845C1148.62 366.505 1149.61 364.615 1152.62 364.615H1154.78V361.285H1152.58C1147.67 361.285 1144.79 363.535 1144.79 368.71V371.32H1140.88V374.65H1144.79V394H1148.62V374.65H1154.78ZM1178.97 381.31C1178.84 375.73 1175.6 370.735 1168.85 370.735C1161.96 370.735 1157.91 375.46 1157.91 382.435C1157.91 389.41 1161.87 394.585 1168.94 394.585C1174.56 394.585 1177.85 391.615 1178.57 387.745H1174.7C1174.02 389.905 1172.13 391.255 1168.94 391.255C1164.26 391.255 1161.83 388.015 1161.69 382.615H1178.97V381.31ZM1168.76 374.065C1172.58 374.065 1174.79 376.54 1175.01 379.42H1161.92C1162.41 376.54 1164.66 374.065 1168.76 374.065ZM1197.89 371.32H1196.18C1192.89 371.32 1190.73 372.625 1189.61 374.02H1188.62V371.32H1184.93V394H1188.75V382.66C1188.75 377.665 1191.5 374.92 1196 374.92H1197.89V371.32ZM1222.56 381.31C1222.43 375.73 1219.19 370.735 1212.44 370.735C1205.55 370.735 1201.5 375.46 1201.5 382.435C1201.5 389.41 1205.46 394.585 1212.53 394.585C1218.15 394.585 1221.44 391.615 1222.16 387.745H1218.29C1217.61 389.905 1215.72 391.255 1212.53 391.255C1207.85 391.255 1205.42 388.015 1205.28 382.615H1222.56V381.31ZM1212.35 374.065C1216.17 374.065 1218.38 376.54 1218.6 379.42H1205.51C1206 376.54 1208.25 374.065 1212.35 374.065ZM1248.68 394V379.6C1248.68 374.155 1245.62 370.735 1240.04 370.735C1236.98 370.735 1234.46 371.995 1233.2 373.75H1232.21V371.32H1228.52V394H1232.35V381.715C1232.35 377.71 1235.05 374.155 1239.1 374.155C1242.92 374.155 1244.86 376.225 1244.86 380.41V394H1248.68ZM1271.02 387.16C1270.44 389.68 1268.55 391.255 1265.31 391.255C1260.22 391.255 1258.11 387.115 1258.11 382.57C1258.11 378.07 1260.18 374.065 1265.31 374.065C1268.41 374.065 1270.17 375.595 1270.89 377.89H1274.71C1273.95 373.705 1270.71 370.735 1265.31 370.735C1258.24 370.735 1254.28 375.82 1254.28 382.66C1254.28 389.365 1258.24 394.585 1265.31 394.585C1270.57 394.585 1273.99 391.615 1274.85 387.16H1271.02ZM1300.22 381.31C1300.08 375.73 1296.84 370.735 1290.09 370.735C1283.21 370.735 1279.16 375.46 1279.16 382.435C1279.16 389.41 1283.12 394.585 1290.18 394.585C1295.81 394.585 1299.09 391.615 1299.81 387.745H1295.94C1295.27 389.905 1293.38 391.255 1290.18 391.255C1285.5 391.255 1283.07 388.015 1282.94 382.615H1300.22V381.31ZM1290 374.065C1293.83 374.065 1296.03 376.54 1296.26 379.42H1283.16C1283.66 376.54 1285.91 374.065 1290 374.065Z" fill="#274867"/>
<path d="M478.095 29.785C475.395 29.2 472.65 28.21 472.65 25.105C472.65 21.73 475.89 19.975 479.76 19.975C484.44 19.975 486.645 21.73 487.41 24.97H491.505C490.785 19.795 486.51 16.285 479.85 16.285C472.605 16.285 468.555 20.2 468.555 25.195C468.555 29.875 471.66 32.395 476.34 33.34C477.915 33.7 481.065 34.285 482.685 34.645C485.835 35.365 488.13 36.67 488.13 40.135C488.13 43.825 484.71 45.895 480.255 45.895C475.845 45.895 471.975 44.41 471.255 40.045H467.16C467.655 45.625 472.56 49.585 480.075 49.585C488.22 49.585 492.225 45.085 492.225 40.045C492.225 34.555 488.985 32.08 484.17 31C482.505 30.64 479.49 30.01 478.095 29.785ZM503.838 26.32V19.48H500.013V26.32H496.098V29.65H500.013V42.655C500.013 47.47 502.893 49 507.798 49H509.553V45.58H507.888C504.828 45.58 503.838 44.41 503.838 42.115V29.65H509.553V26.32H503.838ZM528.803 26.32H527.093C523.808 26.32 521.648 27.625 520.523 29.02H519.533V26.32H515.843V49H519.668V37.66C519.668 32.665 522.413 29.92 526.913 29.92H528.803V26.32ZM543.582 25.735C536.472 25.735 532.422 30.955 532.422 37.66C532.422 44.365 536.472 49.585 543.582 49.585C550.647 49.585 554.742 44.365 554.742 37.66C554.742 30.955 550.647 25.735 543.582 25.735ZM543.582 46.255C538.542 46.255 536.247 42.115 536.247 37.66C536.247 33.205 538.542 29.065 543.582 29.065C548.577 29.065 550.917 33.205 550.917 37.66C550.917 42.115 548.577 46.255 543.582 46.255ZM580.871 49V34.6C580.871 29.155 577.811 25.735 572.231 25.735C569.171 25.735 566.651 26.995 565.391 28.75H564.401V26.32H560.711V49H564.536V36.715C564.536 32.71 567.236 29.155 571.286 29.155C575.111 29.155 577.046 31.225 577.046 35.41V49H580.871ZM604.475 26.32V28.75H603.485C602.27 27.175 600.11 25.735 596.555 25.735C590.3 25.735 586.475 30.685 586.475 37.345C586.475 43.96 590.3 48.91 596.555 48.91C599.975 48.91 602.135 47.47 603.35 45.895H604.34V47.695C604.34 52.24 602.225 55.075 597.545 55.075C594.125 55.075 591.785 54.085 591.11 51.385H587.33C588.005 55.885 591.785 58.315 597.59 58.315C604.205 58.315 608.165 54.22 608.165 47.875V26.32H604.475ZM597.275 45.58C592.82 45.58 590.3 42.25 590.3 37.345C590.3 32.35 592.82 29.065 597.275 29.065C602.135 29.065 604.43 32.98 604.43 37.345C604.43 41.665 602.135 45.58 597.275 45.58ZM628.485 16.87V49H632.535V35.545H641.895C642.75 35.545 643.65 35.5 644.505 35.41L649.32 49H653.505L648.375 34.465C651.615 33.025 653.28 30.19 653.28 26.23C653.28 20.335 649.5 16.87 642.705 16.87H628.485ZM632.535 31.945V20.47H642.12C647.295 20.47 649.185 22.63 649.185 26.23C649.185 29.785 647.295 31.945 642.12 31.945H632.535ZM679.649 36.31C679.514 30.73 676.274 25.735 669.524 25.735C662.639 25.735 658.589 30.46 658.589 37.435C658.589 44.41 662.549 49.585 669.614 49.585C675.239 49.585 678.524 46.615 679.244 42.745H675.374C674.699 44.905 672.809 46.255 669.614 46.255C664.934 46.255 662.504 43.015 662.369 37.615H679.649V36.31ZM669.434 29.065C673.259 29.065 675.464 31.54 675.689 34.42H662.594C663.089 31.54 665.339 29.065 669.434 29.065ZM697.034 29.65V26.32H690.869V23.845C690.869 21.505 691.859 19.615 694.874 19.615H697.034V16.285H694.829C689.924 16.285 687.044 18.535 687.044 23.71V26.32H683.129V29.65H687.044V49H690.869V29.65H697.034ZM721.221 36.31C721.086 30.73 717.846 25.735 711.096 25.735C704.211 25.735 700.161 30.46 700.161 37.435C700.161 44.41 704.121 49.585 711.186 49.585C716.811 49.585 720.096 46.615 720.816 42.745H716.946C716.271 44.905 714.381 46.255 711.186 46.255C706.506 46.255 704.076 43.015 703.941 37.615H721.221V36.31ZM711.006 29.065C714.831 29.065 717.036 31.54 717.261 34.42H704.166C704.661 31.54 706.911 29.065 711.006 29.065ZM740.136 26.32H738.426C735.141 26.32 732.981 27.625 731.856 29.02H730.866V26.32H727.176V49H731.001V37.66C731.001 32.665 733.746 29.92 738.246 29.92H740.136V26.32ZM764.815 36.31C764.68 30.73 761.44 25.735 754.69 25.735C747.805 25.735 743.755 30.46 743.755 37.435C743.755 44.41 747.715 49.585 754.78 49.585C760.405 49.585 763.69 46.615 764.41 42.745H760.54C759.865 44.905 757.975 46.255 754.78 46.255C750.1 46.255 747.67 43.015 747.535 37.615H764.815V36.31ZM754.6 29.065C758.425 29.065 760.63 31.54 760.855 34.42H747.76C748.255 31.54 750.505 29.065 754.6 29.065ZM790.93 49V34.6C790.93 29.155 787.87 25.735 782.29 25.735C779.23 25.735 776.71 26.995 775.45 28.75H774.46V26.32H770.77V49H774.595V36.715C774.595 32.71 777.295 29.155 781.345 29.155C785.17 29.155 787.105 31.225 787.105 35.41V49H790.93ZM813.273 42.16C812.688 44.68 810.798 46.255 807.558 46.255C802.473 46.255 800.358 42.115 800.358 37.57C800.358 33.07 802.428 29.065 807.558 29.065C810.663 29.065 812.418 30.595 813.138 32.89H816.963C816.198 28.705 812.958 25.735 807.558 25.735C800.493 25.735 796.533 30.82 796.533 37.66C796.533 44.365 800.493 49.585 807.558 49.585C812.823 49.585 816.243 46.615 817.098 42.16H813.273ZM842.466 36.31C842.331 30.73 839.091 25.735 832.341 25.735C825.456 25.735 821.406 30.46 821.406 37.435C821.406 44.41 825.366 49.585 832.431 49.585C838.056 49.585 841.341 46.615 842.061 42.745H838.191C837.516 44.905 835.626 46.255 832.431 46.255C827.751 46.255 825.321 43.015 825.186 37.615H842.466V36.31ZM832.251 29.065C836.076 29.065 838.281 31.54 838.506 34.42H825.411C825.906 31.54 828.156 29.065 832.251 29.065Z" fill="#274867"/>
<path d="M29.99 679.87C27.695 679.51 26.57 678.835 26.57 677.08C26.57 675.145 28.55 674.065 31.475 674.065C34.31 674.065 36.47 675.055 36.785 677.215H40.61C40.115 673.255 37.01 670.735 31.655 670.735C25.535 670.735 22.7 673.66 22.7 677.44C22.7 680.86 24.905 682.57 28.145 683.155L33.23 684.01C36.11 684.505 37.37 685.585 37.37 687.565C37.37 690.04 35.12 691.255 31.7 691.255C28.28 691.255 26.03 689.995 25.67 687.43H21.8C22.295 691.75 25.445 694.585 31.88 694.585C38 694.585 41.195 691.21 41.195 687.475C41.195 683.335 38.675 681.31 34.715 680.635L32.15 680.23L29.99 679.87ZM56.5702 670.735C49.4602 670.735 45.4102 675.955 45.4102 682.66C45.4102 689.365 49.4602 694.585 56.5702 694.585C63.6352 694.585 67.7302 689.365 67.7302 682.66C67.7302 675.955 63.6352 670.735 56.5702 670.735ZM56.5702 691.255C51.5302 691.255 49.2352 687.115 49.2352 682.66C49.2352 678.205 51.5302 674.065 56.5702 674.065C61.5652 674.065 63.9052 678.205 63.9052 682.66C63.9052 687.115 61.5652 691.255 56.5702 691.255ZM85.1298 674.65V671.32H78.9648V668.845C78.9648 666.505 79.9548 664.615 82.9698 664.615H85.1298V661.285H82.9248C78.0198 661.285 75.1398 663.535 75.1398 668.71V671.32H71.2248V674.65H75.1398V694H78.9648V674.65H85.1298ZM95.5321 671.32V664.48H91.7071V671.32H87.7921V674.65H91.7071V687.655C91.7071 692.47 94.5871 694 99.4921 694H101.247V690.58H99.5821C96.5221 690.58 95.5321 689.41 95.5321 687.115V674.65H101.247V671.32H95.5321ZM107.943 661.87V694H111.993V680.545H121.353C122.208 680.545 123.108 680.5 123.963 680.41L128.778 694H132.963L127.833 679.465C131.073 678.025 132.738 675.19 132.738 671.23C132.738 665.335 128.958 661.87 122.163 661.87H107.943ZM111.993 676.945V665.47H121.578C126.753 665.47 128.643 667.63 128.643 671.23C128.643 674.785 126.753 676.945 121.578 676.945H111.993ZM159.107 681.31C158.972 675.73 155.732 670.735 148.982 670.735C142.097 670.735 138.047 675.46 138.047 682.435C138.047 689.41 142.007 694.585 149.072 694.585C154.697 694.585 157.982 691.615 158.702 687.745H154.832C154.157 689.905 152.267 691.255 149.072 691.255C144.392 691.255 141.962 688.015 141.827 682.615H159.107V681.31ZM148.892 674.065C152.717 674.065 154.922 676.54 155.147 679.42H142.052C142.547 676.54 144.797 674.065 148.892 674.065ZM176.492 674.65V671.32H170.327V668.845C170.327 666.505 171.317 664.615 174.332 664.615H176.492V661.285H174.287C169.382 661.285 166.502 663.535 166.502 668.71V671.32H162.587V674.65H166.502V694H170.327V674.65H176.492ZM200.679 681.31C200.544 675.73 197.304 670.735 190.554 670.735C183.669 670.735 179.619 675.46 179.619 682.435C179.619 689.41 183.579 694.585 190.644 694.585C196.269 694.585 199.554 691.615 200.274 687.745H196.404C195.729 689.905 193.839 691.255 190.644 691.255C185.964 691.255 183.534 688.015 183.399 682.615H200.679V681.31ZM190.464 674.065C194.289 674.065 196.494 676.54 196.719 679.42H183.624C184.119 676.54 186.369 674.065 190.464 674.065ZM219.594 671.32H217.884C214.599 671.32 212.439 672.625 211.314 674.02H210.324V671.32H206.634V694H210.459V682.66C210.459 677.665 213.204 674.92 217.704 674.92H219.594V671.32ZM244.273 681.31C244.138 675.73 240.898 670.735 234.148 670.735C227.263 670.735 223.213 675.46 223.213 682.435C223.213 689.41 227.173 694.585 234.238 694.585C239.863 694.585 243.148 691.615 243.868 687.745H239.998C239.323 689.905 237.433 691.255 234.238 691.255C229.558 691.255 227.128 688.015 226.993 682.615H244.273V681.31ZM234.058 674.065C237.883 674.065 240.088 676.54 240.313 679.42H227.218C227.713 676.54 229.963 674.065 234.058 674.065ZM270.388 694V679.6C270.388 674.155 267.328 670.735 261.748 670.735C258.688 670.735 256.168 671.995 254.908 673.75H253.918V671.32H250.228V694H254.053V681.715C254.053 677.71 256.753 674.155 260.803 674.155C264.628 674.155 266.563 676.225 266.563 680.41V694H270.388ZM292.731 687.16C292.146 689.68 290.256 691.255 287.016 691.255C281.931 691.255 279.816 687.115 279.816 682.57C279.816 678.07 281.886 674.065 287.016 674.065C290.121 674.065 291.876 675.595 292.596 677.89H296.421C295.656 673.705 292.416 670.735 287.016 670.735C279.951 670.735 275.991 675.82 275.991 682.66C275.991 689.365 279.951 694.585 287.016 694.585C292.281 694.585 295.701 691.615 296.556 687.16H292.731ZM321.924 681.31C321.789 675.73 318.549 670.735 311.799 670.735C304.914 670.735 300.864 675.46 300.864 682.435C300.864 689.41 304.824 694.585 311.889 694.585C317.514 694.585 320.799 691.615 321.519 687.745H317.649C316.974 689.905 315.084 691.255 311.889 691.255C307.209 691.255 304.779 688.015 304.644 682.615H321.924V681.31ZM311.709 674.065C315.534 674.065 317.739 676.54 317.964 679.42H304.869C305.364 676.54 307.614 674.065 311.709 674.065Z" fill="#274867"/>
</g>
<defs>
<clipPath id="clip0_1102_381">
<rect width="1474" height="705" fill="white"/>
</clipPath>
</defs>
</svg>
